PathFileType	4	(X/Y/Z)	D:\TRACE\spotREDO_2-26-24\spot_Both_Motion_1_8-v60.trc
DataRate	CameraRate	NumFrames	NumMarkers	Units	OrigDataRate	OrigDataStartFrame	OrigNumFrames
100.00	100.00	      34	9	mm	100.00	1751	      7000
Frame#	Time	front left toe			Front right toe			aft left toe			aft right toe			Arm			FL body			FR body			AL Body			AR Body			
		X1	Y1	Z1	X2	Y2	Z2	X3	Y3	Z3	X4	Y4	Z4	X5	Y5	Z5	X6	Y6	Z6	X7	Y7	Z7	X8	Y8	Z8	X9	Y9	Z9	

1751	17.500	-293.95148	42.19366	-484.28680	156.17380	34.46329	-441.24600	-297.81012	14.79667	139.67940	129.73048	18.86016	167.13089	-47.54313	743.38147	-784.30463	-88.71569	612.15057	-528.00244	65.45074	617.28259	-513.36182	-176.38643	558.09271	350.58118	-35.35915	562.94324	365.71558	
1752	17.510	-294.66516	42.23243	-484.34302	155.23265	34.24087	-441.25684	-298.91919	14.73577	139.47455	128.78857	18.80690	167.04469	-49.86813	746.12500	-780.39905	-89.42576	611.05389	-528.97760	65.35991	616.21844	-513.74255	-177.25731	558.21698	349.98642	-36.40990	563.41119	365.01465	
1753	17.520	-295.62158	42.35698	-484.17392	154.81371	34.12875	-441.12595	-299.65396	14.75974	139.43188	127.89328	18.84054	167.10947	-52.94260	749.18390	-776.03705	-88.90228	609.55554	-529.17908	64.81766	615.13538	-514.20020	-177.67610	558.29333	349.54321	-36.84100	563.57373	364.60806	
1754	17.530	-296.37967	41.86039	-484.33841	153.35397	33.94971	-441.35608	-300.99789	14.85818	139.49069	126.91557	18.60414	166.87132	-55.97781	752.48230	-771.22827	-89.28288	608.64923	-529.64465	65.36827	614.53375	-515.05414	-177.87486	557.98792	348.99466	-37.30929	563.52783	364.29794	
1755	17.540	-297.49399	42.02208	-484.21017	152.31412	33.76905	-441.37152	-301.71997	14.79446	139.53334	125.99078	18.38783	166.95805	-58.24034	755.50598	-766.17767	-89.57151	608.12933	-529.93713	64.92039	614.00916	-515.38123	-177.50218	557.40637	348.69177	-37.32183	563.14276	363.97565	
1756	17.550	-298.40579	41.88541	-484.40430	151.59030	33.73762	-441.40601	-302.29419	14.76433	139.48044	125.35366	18.24944	166.93491	-60.27274	758.58838	-761.68738	-90.15363	607.79071	-530.12097	64.29730	613.83093	-515.76208	-177.58585	557.00659	348.54535	-37.19783	562.47559	363.45157	
1757	17.560	-299.61194	41.66320	-484.31049	150.52164	34.02169	-441.55072	-303.62299	15.24018	139.67097	124.52717	17.98138	166.95264	-61.14484	761.02368	-757.48346	-91.37419	608.08630	-530.18384	63.20851	614.08569	-515.98431	-176.55466	555.07556	348.22900	-36.29899	561.33173	363.20120	
1758	17.570	-300.41226	41.41518	-484.21255	148.94211	33.83564	-442.08456	-304.07040	15.49151	139.50641	123.66916	17.93456	166.98256	-61.32052	763.03082	-754.14276	-93.01839	608.75006	-529.93176	61.93995	614.47168	-516.20959	-175.25972	553.98627	350.06812	-35.57257	560.37579	363.30640	
1759	17.580	-301.76135	41.65857	-483.93933	148.31349	33.96444	-442.05862	-304.90927	15.39569	139.62292	122.85021	17.65002	166.83069	-60.26896	764.04535	-750.90515	-94.15623	609.62451	-529.56122	59.87807	615.08850	-516.19879	-174.51399	552.85571	350.54550	-34.78334	559.30212	363.55798	
1760	17.590	-302.98169	41.14051	-483.69073	147.24364	34.15110	-442.22928	-305.80469	15.54243	139.85435	122.46555	17.55165	166.92995	-58.44176	764.66522	-748.51019	-95.45734	610.41022	-528.95056	58.94675	616.02954	-515.88861	-173.80373	551.77124	351.22775	-33.63298	557.35773	363.44186	
1761	17.600	-303.79123	40.94254	-483.66061	145.90889	34.19333	-442.25174	-306.76022	15.75281	139.98682	121.40474	17.31589	166.93684	-56.81204	764.50647	-747.33405	-96.62992	611.27155	-528.18945	58.17023	616.73779	-515.31488	-172.93494	550.75397	351.92810	-33.01763	556.24243	364.13474	
1762	17.610	-305.14926	41.10725	-483.63794	145.21768	33.99523	-442.65350	-307.55563	15.95896	139.96906	120.65206	17.38583	166.85257	-54.83811	763.82843	-746.51227	-97.47868	612.12933	-527.38531	57.40702	617.31177	-514.72272	-172.64948	549.96008	352.62369	-32.66034	555.35132	364.62711	
1763	17.620	-305.88089	40.99548	-483.71899	144.40424	33.89366	-442.69025	-308.20889	15.77433	139.94411	119.57082	17.47340	166.96045	-53.18644	762.75726	-746.24121	-97.65384	612.36835	-526.69598	57.05526	617.59552	-514.21204	-172.79022	549.70789	353.35159	-33.10242	554.83612	365.39334	
1764	17.630	-306.54498	41.21697	-483.69135	143.50200	33.50509	-442.48825	-309.24884	15.90316	140.13950	118.59084	17.46349	166.96082	-52.04797	761.27930	-746.24628	-97.55457	612.54474	-525.88983	57.09518	617.69531	-513.15320	-174.05804	550.57416	353.18008	-33.42955	554.56848	366.15637	
1765	17.640	-307.12683	41.33590	-484.05438	142.63524	33.21080	-442.04492	-310.25055	15.89652	140.17499	117.79075	17.79543	167.14861	-51.79079	759.74170	-746.67139	-96.69712	612.43341	-525.23273	58.14299	617.37469	-512.27136	-175.03632	549.63867	353.14355	-34.66988	554.80786	367.07974	
1766	17.650	-307.82120	41.37866	-484.61148	142.12912	32.44620	-442.00156	-310.99777	16.04948	140.16492	116.43084	17.64595	167.14151	-52.17316	758.21271	-746.98645	-95.74710	611.96558	-524.69055	59.32785	616.84106	-511.15622	-176.67398	549.89886	353.56735	-35.63705	554.74976	367.75174	
1767	17.660	-308.05392	41.46173	-484.89694	141.62476	31.91564	-441.66949	-312.58356	16.25645	139.79512	115.58842	18.13767	167.43825	-53.48796	757.29352	-747.75616	-94.09057	611.41565	-524.12854	60.17345	616.23560	-510.46185	-177.70093	550.01300	353.85245	-37.31393	555.04211	368.48898	
1768	17.670	-308.61710	41.50027	-485.15091	141.29819	31.71539	-441.35013	-313.31021	15.89761	139.69615	114.40331	18.07746	167.33521	-55.46581	756.01447	-748.33240	-93.15427	610.59918	-523.86401	61.68214	615.48132	-509.17981	-179.20618	550.40753	354.06393	-38.83035	555.81732	369.36273	
1769	17.680	-309.17010	41.32350	-485.37573	140.40408	31.09519	-441.14914	-314.03247	15.89896	139.54861	113.62988	18.24729	167.57974	-57.67844	755.32684	-749.08148	-91.98153	609.71796	-523.32507	62.51648	614.49213	-508.61206	-180.00931	550.64154	354.62933	-39.72160	556.03619	370.04605	
1770	17.690	-309.57318	41.11035	-485.38287	139.56288	30.71059	-441.11172	-315.31339	16.03632	139.39224	112.69841	18.28610	167.49060	-59.67996	755.04742	-749.38916	-91.34577	608.96875	-522.87555	63.47105	613.69757	-507.78241	-180.67462	550.77869	355.04822	-40.29729	556.16455	370.85648	
1771	17.700	-310.53735	41.25248	-485.54254	138.50085	30.32084	-441.27859	-315.72168	15.99971	139.50897	111.80966	18.07168	167.41537	-62.11489	754.90985	-750.25177	-90.19242	607.59778	-522.10211	63.55613	612.89575	-507.15244	-181.12965	550.90546	355.40118	-40.82772	556.40405	371.43417	
1772	17.710	-311.79764	40.89986	-485.49594	137.72362	30.12074	-441.38998	-316.60025	16.16720	139.36604	111.26905	18.11714	167.55873	-63.79627	755.19458	-750.45087	-90.90541	607.15302	-521.68896	63.51277	612.04010	-506.51523	-181.20610	550.93567	356.29559	-40.66676	555.90692	371.72443	
1773	17.720	-312.77332	40.64396	-485.30618	136.75478	30.01229	-441.41791	-317.57370	16.36826	139.34351	110.45251	17.96149	167.34242	-65.21656	755.47992	-751.02252	-91.55484	606.50403	-520.91040	63.18843	611.58508	-506.11240	-180.72307	550.66254	357.09879	-40.23828	555.77173	372.54108	
1774	17.730	-313.26331	40.32902	-485.22781	136.08018	30.08599	-441.41119	-318.11127	16.56962	139.46248	109.75224	17.90030	167.34047	-66.15678	755.85638	-751.39777	-91.88631	605.91974	-520.28644	62.70237	611.12097	-505.54913	-179.95233	550.32355	357.88370	-39.83239	555.66760	372.91739	
1775	17.740	-314.39511	39.88791	-484.94562	135.27463	30.07807	-441.48703	-318.62448	16.67762	139.57864	109.41147	17.64607	167.33269	-67.00785	756.59027	-752.26807	-92.91319	605.52118	-519.54797	61.69550	610.81085	-505.01410	-179.28020	550.04059	358.69855	-39.19959	555.83276	373.98383	
1776	17.750	-315.43979	39.74523	-484.74896	134.35114	29.72854	-441.87009	-319.29150	16.94894	139.69221	108.69854	17.57036	167.37584	-67.29512	756.83911	-752.62549	-93.54792	604.92682	-518.70215	61.02618	610.64331	-504.54639	-178.75761	549.74829	359.63712	-38.54212	555.06665	374.49661	
1777	17.760	-316.24890	39.76115	-484.61618	133.17482	29.50383	-441.92859	-319.92313	17.02546	139.77850	107.80276	17.51072	167.34073	-67.54141	756.94452	-752.95929	-94.50104	604.84644	-517.90704	60.15904	610.32727	-504.07166	-178.27817	549.37378	360.55469	-37.81372	554.73743	375.07077	
1778	17.770	-317.05396	39.49026	-484.76910	132.45105	29.43431	-441.85501	-320.65668	17.15938	139.84503	106.87442	17.40651	167.30481	-67.40947	757.14612	-753.00043	-95.01807	604.81519	-517.30664	59.61041	610.13831	-503.31360	-177.64755	549.05725	361.46039	-37.23610	554.31647	375.86615	
1779	17.780	-318.17313	39.26291	-484.58719	131.69127	29.30096	-442.01746	-321.46878	17.38609	139.81436	106.12449	17.34015	167.22705	-67.65938	757.40125	-753.49835	-95.72372	604.69824	-516.29254	58.98027	609.99976	-502.80008	-177.44571	548.80536	362.16028	-36.93905	554.62683	376.72229	
1780	17.790	-318.78864	39.49332	-484.57642	130.79767	29.09934	-442.06326	-322.02344	17.31004	139.94632	105.59356	17.38904	167.32802	-68.10354	757.50873	-753.73615	-95.98804	604.63464	-515.64032	58.45244	609.76715	-502.19992	-177.57462	548.45715	363.01083	-36.97128	554.31189	377.63504	
1781	17.800	-319.39798	39.50900	-484.91156	130.18044	28.95802	-441.95914	-323.05112	17.47725	139.81770	104.66328	17.36461	167.33821	-68.71171	757.38312	-753.85400	-96.51678	604.54407	-514.97424	58.21666	609.67865	-501.24509	-177.82878	548.35388	363.69629	-36.92830	553.56989	378.04562	
1782	17.810	-320.10071	39.39486	-484.95682	129.51556	28.62901	-441.86771	-323.86533	17.65549	139.72169	104.01537	17.37656	167.32895	-69.06857	757.20386	-753.84430	-96.46367	604.35297	-514.02057	58.38175	609.50238	-500.53745	-178.06911	548.17822	364.43149	-37.40800	553.20062	378.63263	
1783	17.820	-320.53326	39.32298	-485.04367	128.91173	28.38038	-441.88651	-324.43326	17.81360	139.53320	103.26327	17.29884	167.50735	-69.73338	756.94049	-753.78735	-96.21235	604.16882	-513.46722	58.33514	609.31189	-499.96301	-178.52841	548.03510	365.13062	-38.18289	553.48785	379.70474	
1784	17.830	-318.99384	43.25882	-483.53244	128.70972	27.86019	-441.67548	-324.94037	17.34604	139.47665	102.65801	17.25787	167.83417	-70.29726	756.81274	-753.79645	-96.17344	603.87933	-513.08459	58.47287	609.15051	-499.03183	-179.58266	547.79297	365.55283	-38.56967	552.77148	380.08664	
